<?xml version="1.0" standalone="no"?>
<!DOCTYPE svg PUBLIC "-//W3C//DTD SVG 20010904//EN"
 "http://www.w3.org/TR/2001/REC-SVG-20010904/DTD/svg10.dtd">
<svg version="1.0" xmlns="http://www.w3.org/2000/svg"
 width="1412.000000pt" height="715.000000pt" viewBox="0 0 1412.000000 715.000000"
 preserveAspectRatio="xMidYMid meet">

<g transform="translate(0.000000,715.000000) scale(0.100000,-0.100000)"
fill="#000000" stroke="none">
<path d="M3960 4466 c0 -218 2 -396 5 -396 3 0 185 172 405 383 l399 382 -167
6 c-92 4 -274 10 -404 14 l-238 8 0 -397z"/>
<path d="M3665 4573 c-115 -124 -281 -299 -367 -389 -87 -90 -158 -166 -158
-169 0 -3 169 -5 375 -5 l375 0 0 395 c0 217 -3 395 -7 395 -5 -1 -102 -102
-218 -227z"/>
<path d="M4609 4588 c-68 -66 -113 -113 -99 -106 118 68 321 190 318 192 -1 2
-24 10 -49 19 l-46 15 -124 -120z"/>
<path d="M5210 3745 l0 -935 180 0 180 0 2 298 3 297 27 3 c18 2 30 -3 36 -15
5 -10 46 -145 93 -300 l84 -283 183 0 c140 0 182 3 182 13 0 7 -42 139 -94
294 -52 155 -91 284 -88 287 3 3 17 6 31 6 41 0 86 34 110 82 21 43 21 55 21
521 0 531 -1 540 -67 608 -19 20 -51 41 -72 48 -26 7 -165 11 -425 11 l-386 0
0 -935z m588 603 c9 -9 12 -93 12 -314 0 -264 -2 -305 -16 -319 -13 -13 -35
-15 -118 -13 l-101 3 -3 328 -2 327 108 0 c71 0 112 -4 120 -12z"/>
<path d="M6340 3745 l0 -935 350 0 c193 0 350 1 350 3 0 1 14 72 30 157 16 85
30 161 30 168 0 9 -46 12 -195 12 l-195 0 0 210 0 210 155 0 155 0 0 160 0
160 -155 0 -155 0 0 225 0 225 206 0 c161 0 205 3 202 13 -3 6 -18 83 -33 170
l-28 157 -359 0 -358 0 0 -935z"/>
<path d="M7270 3745 l0 -935 378 0 c418 0 455 4 510 60 58 58 65 96 70 399 2
151 1 298 -3 327 -10 80 -47 127 -119 149 -17 5 -15 8 14 23 47 23 77 72 85
135 4 29 5 183 3 342 -3 274 -4 292 -25 330 -28 52 -62 83 -104 95 -19 6 -199
10 -421 10 l-388 0 0 -935z m590 596 c6 -12 10 -104 10 -229 0 -266 7 -254
-140 -250 l-105 3 -3 235 c-1 129 0 240 2 247 4 10 36 13 115 13 99 0 111 -2
121 -19z m-6 -777 c22 -22 24 -405 2 -423 -9 -8 -51 -11 -122 -9 l-109 3 -3
210 c-1 115 0 215 2 222 8 21 210 18 230 -3z"/>
<path d="M8400 3745 l0 -935 350 0 350 0 5 23 c9 39 55 292 55 305 0 9 -46 12
-195 12 l-195 0 2 208 3 207 153 3 152 3 0 159 0 160 -155 0 -155 0 2 223 3
222 203 3 202 2 -5 23 c-8 36 -55 299 -55 309 0 4 -162 8 -360 8 l-360 0 0
-935z"/>
<path d="M9444 4661 c-45 -21 -85 -67 -103 -120 -15 -45 -15 -1495 0 -1561 14
-63 52 -116 102 -142 40 -22 53 -23 313 -26 l271 -3 26 138 c15 76 29 153 33
171 l7 32 -181 0 c-99 0 -187 3 -196 6 -14 6 -16 66 -16 583 0 435 3 580 12
589 8 8 66 12 195 12 101 0 183 3 183 6 0 3 -13 77 -30 166 -16 88 -30 162
-30 164 0 2 -123 4 -272 4 -245 0 -277 -2 -314 -19z"/>
<path d="M10525 4658 c-3 -13 -77 -423 -165 -913 -88 -490 -162 -900 -165
-912 l-5 -23 179 0 c207 0 181 -18 202 138 l12 92 137 0 c159 0 140 16 161
-137 l12 -93 180 0 180 0 -6 28 c-3 15 -78 435 -168 935 l-164 907 -192 0
c-192 0 -193 0 -198 -22z m253 -998 c22 -173 38 -318 35 -322 -2 -5 -44 -8
-94 -8 -83 0 -89 1 -89 20 0 37 79 621 86 632 3 5 10 6 14 1 4 -4 26 -150 48
-323z"/>
<path d="M2670 4315 l0 -305 183 0 182 0 92 93 91 92 -195 213 -195 212 -79 0
-79 0 0 -305z"/>
<path d="M2510 4490 l-85 -79 88 -1 87 0 0 80 c0 44 -1 80 -2 80 -2 0 -41 -36
-88 -80z"/>
<path d="M2722 3941 c7 -20 814 -869 823 -867 8 2 303 784 321 854 l6 22 -577
0 c-338 0 -575 -4 -573 -9z"/>
<path d="M3878 3760 c-4 -8 -88 -234 -186 -503 l-179 -487 31 -19 c85 -50 338
-183 342 -179 2 3 3 274 2 604 -2 329 -6 592 -10 584z"/>
<path d="M5839 2521 c-69 -69 1 -167 95 -131 23 8 26 13 16 25 -8 10 -18 11
-35 5 -47 -18 -89 48 -50 80 9 7 27 10 44 7 41 -9 60 16 25 31 -40 19 -63 14
-95 -17z"/>
<path d="M6035 2525 c-31 -30 -33 -83 -6 -116 28 -35 95 -33 127 4 32 38 30
72 -5 108 -38 37 -82 39 -116 4z m93 -27 c28 -28 7 -78 -33 -78 -27 0 -45 18
-45 45 0 27 18 45 45 45 12 0 26 -5 33 -12z"/>
<path d="M6232 2469 l3 -84 47 1 c61 0 88 23 88 74 0 55 -25 79 -88 87 l-53 6
3 -84z m93 17 c19 -29 8 -61 -25 -71 -31 -10 -40 2 -40 51 0 40 2 44 25 44 15
0 31 -9 40 -24z"/>
<path d="M6425 2537 c-4 -8 -5 -45 -3 -83 2 -53 6 -69 18 -69 12 0 15 15 15
79 0 55 -4 81 -12 83 -7 3 -15 -2 -18 -10z"/>
<path d="M6512 2468 c3 -84 20 -112 26 -43 4 44 17 44 43 1 21 -37 47 -52 61
-38 5 5 8 42 6 83 -2 58 -6 74 -18 74 -10 0 -17 -14 -20 -44 -5 -41 -6 -42
-21 -25 -8 11 -23 31 -32 47 -10 15 -24 27 -33 27 -12 0 -14 -14 -12 -82z"/>
<path d="M6725 2527 c-21 -17 -27 -32 -27 -61 0 -51 29 -81 80 -80 59 0 72 9
72 49 0 32 -2 35 -30 35 -31 0 -43 -23 -17 -33 19 -8 -11 -26 -34 -20 -30 8
-43 41 -30 71 10 22 16 24 51 19 45 -6 63 9 35 30 -28 20 -71 16 -100 -10z"/>
<path d="M6987 2543 c-15 -15 -6 -33 18 -33 23 0 24 -4 27 -62 2 -35 8 -63 13
-63 6 0 11 28 13 63 3 54 6 62 22 62 13 0 20 7 20 20 0 18 -7 20 -53 20 -30 0
-57 -3 -60 -7z"/>
<path d="M7155 2537 c-4 -8 -5 -45 -3 -83 2 -53 6 -69 18 -69 9 0 16 11 18 28
3 25 7 28 35 25 23 -2 33 -9 37 -26 11 -51 25 -24 28 56 2 67 0 82 -12 82 -10
0 -16 -12 -18 -37 -3 -35 -6 -38 -33 -38 -27 0 -31 4 -35 34 -5 36 -26 53 -35
28z"/>
<path d="M7344 2537 c-3 -8 -4 -45 -2 -83 l3 -69 59 0 c71 0 91 22 24 27 -50
3 -62 31 -15 36 38 5 36 32 -3 32 -49 0 -38 28 13 32 29 2 42 8 42 18 0 21
-113 28 -121 7z"/>
<path d="M7604 2537 c-3 -8 -4 -45 -2 -83 2 -53 6 -69 18 -69 9 0 16 11 18 28
3 21 9 27 28 27 31 0 32 27 2 32 -13 2 -24 11 -26 21 -3 14 4 17 38 17 34 0
41 3 38 18 -4 23 -105 31 -114 9z"/>
<path d="M7762 2480 c2 -38 9 -75 16 -82 7 -7 31 -13 53 -13 55 0 69 21 69
102 0 56 -2 63 -20 63 -16 0 -19 -8 -22 -62 -3 -60 -4 -63 -28 -63 -24 0 -25
3 -28 63 -3 55 -5 62 -24 62 -19 0 -20 -5 -16 -70z"/>
<path d="M7950 2530 c0 -13 7 -20 20 -20 16 0 19 -8 22 -62 2 -48 7 -63 18
-63 11 0 16 15 18 63 3 55 5 62 23 62 14 0 19 5 17 18 -2 13 -15 18 -61 20
-52 3 -57 1 -57 -18z"/>
<path d="M8120 2481 c0 -61 3 -72 22 -85 12 -9 32 -16 43 -16 11 0 31 7 43 16
19 13 22 24 22 85 0 55 -3 69 -15 69 -11 0 -15 -12 -15 -49 0 -64 -7 -81 -35
-81 -28 0 -35 17 -35 81 0 37 -4 49 -15 49 -12 0 -15 -14 -15 -69z"/>
<path d="M8305 2538 c-3 -8 -5 -46 -3 -84 2 -53 6 -69 18 -69 8 0 16 10 18 23
4 27 32 29 39 3 5 -21 29 -35 44 -25 5 3 5 13 -1 25 -7 13 -7 25 0 38 15 28
12 67 -5 81 -24 20 -103 26 -110 8z m90 -48 c0 -9 -11 -16 -27 -18 -23 -3 -28
1 -28 18 0 17 5 21 28 18 16 -2 27 -9 27 -18z"/>
<path d="M8484 2537 c-3 -8 -4 -45 -2 -83 l3 -69 59 0 c71 0 91 22 24 27 -50
3 -62 31 -15 36 38 5 36 32 -3 32 -49 0 -38 28 13 32 29 2 42 8 42 18 0 21
-113 28 -121 7z"/>
<path d="M8744 2537 c-3 -8 -4 -45 -2 -83 3 -68 3 -69 32 -72 79 -9 121 22 95
70 -7 13 -12 35 -10 50 2 22 -3 30 -24 38 -37 14 -85 12 -91 -3z m80 -36 c7
-11 -22 -23 -35 -15 -5 3 -9 9 -9 15 0 12 37 12 44 0z m5 -60 c7 -5 10 -14 7
-20 -10 -16 -56 -14 -56 2 0 26 23 35 49 18z"/>
<path d="M8917 2544 c-3 -3 6 -25 20 -48 15 -22 29 -57 33 -76 8 -50 33 -46
40 5 3 23 16 57 28 77 26 42 27 48 8 48 -8 0 -25 -14 -37 -31 l-22 -31 -24 31
c-24 31 -34 36 -46 25z"/>
<path d="M9117 2544 c-14 -14 -7 -34 13 -34 16 0 19 -8 22 -62 2 -48 7 -63 18
-63 11 0 16 15 18 63 3 55 5 62 23 62 14 0 19 5 17 18 -2 13 -15 18 -53 20
-28 2 -54 0 -58 -4z"/>
<path d="M9284 2537 c-3 -8 -4 -45 -2 -83 l3 -69 54 0 c35 0 56 5 59 13 2 8
-9 12 -37 12 -34 0 -41 3 -41 20 0 15 7 20 25 20 16 0 25 6 25 15 0 9 -9 15
-25 15 -16 0 -25 6 -25 15 0 11 11 15 40 15 33 0 40 3 40 20 0 18 -7 20 -55
20 -38 0 -57 -4 -61 -13z"/>
<path d="M9544 2537 c-3 -8 -4 -45 -2 -83 l3 -69 42 -3 c23 -2 51 2 63 8 21
11 28 54 10 65 -5 3 -7 19 -4 34 5 22 1 32 -17 45 -28 19 -88 21 -95 3z m74
-39 c-3 -7 -13 -13 -23 -13 -10 0 -20 6 -22 13 -3 7 5 12 22 12 17 0 25 -5 23
-12z m11 -61 c14 -18 4 -27 -31 -27 -26 0 -37 17 -21 33 11 12 40 8 52 -6z"/>
<path d="M9710 2543 c0 -5 10 -24 22 -43 12 -19 24 -53 27 -75 7 -46 34 -56
39 -15 1 14 15 48 29 77 33 62 22 82 -18 34 -16 -19 -30 -33 -32 -30 -2 2 -11
16 -20 32 -16 24 -47 38 -47 20z"/>
<path d="M10002 2468 l3 -83 42 -3 c23 -2 51 2 63 8 23 13 27 52 5 70 -11 9
-12 16 -2 32 10 16 8 22 -12 39 -14 11 -38 19 -63 19 l-39 0 3 -82z m76 30
c-3 -7 -13 -13 -23 -13 -10 0 -20 6 -22 13 -3 7 5 12 22 12 17 0 25 -5 23 -12z
m10 -70 c3 -14 -3 -18 -27 -18 -29 0 -41 17 -24 34 13 13 48 1 51 -16z"/>
<path d="M10170 2540 c0 -6 11 -28 24 -49 14 -21 26 -54 28 -72 2 -22 8 -34
18 -34 10 0 16 12 18 34 2 18 14 51 28 72 13 21 24 43 24 49 0 21 -30 9 -47
-20 -21 -36 -29 -37 -44 -7 -17 32 -49 50 -49 27z"/>
<path d="M10367 2543 c-15 -15 -6 -33 18 -33 23 0 24 -4 27 -62 2 -35 8 -63
13 -63 6 0 11 28 13 63 3 54 6 62 22 62 13 0 20 7 20 20 0 18 -7 20 -53 20
-30 0 -57 -3 -60 -7z"/>
<path d="M10534 2537 c-3 -8 -4 -45 -2 -83 l3 -69 54 0 c64 0 84 22 24 27 -46
4 -54 31 -10 36 35 4 30 26 -6 30 -44 5 -33 30 16 34 29 2 42 8 42 18 0 21
-113 28 -121 7z"/>
</g>
</svg>
